<svg width="26" height="27" viewBox="0 0 26 27" fill="none" xmlns="http://www.w3.org/2000/svg">
<path d="M15.9894 17.6064H15.9936M14.3799 12.6903C14.6098 12.0077 15.2436 11.5173 15.9894 11.5173C16.9292 11.5173 17.6912 12.2962 17.6912 13.2571C17.6912 13.9775 17.2628 14.5957 16.6522 14.8599C16.337 14.9963 16.1794 15.0645 16.1243 15.1171C16.0587 15.1798 16.0462 15.1991 16.0153 15.2853C15.9894 15.3577 15.9894 15.4694 15.9894 15.6927V16.3016" stroke="#03432F" stroke-linecap="round" stroke-linejoin="round"/>
<path fill-rule="evenodd" clip-rule="evenodd" d="M10.543 9.41895H21.4173C22.2457 9.41895 22.9173 10.0905 22.9173 10.9189V19.2168H10.543C9.71454 19.2168 9.04297 18.5452 9.04297 17.7168V10.9189C9.04297 10.0905 9.71454 9.41895 10.543 9.41895ZM6.54297 10.9189C6.54297 8.7098 8.33383 6.91895 10.543 6.91895H21.4173C23.6264 6.91895 25.4173 8.70981 25.4173 10.9189V19.2168V20.6675C25.4464 20.7734 25.462 20.8849 25.462 21V25.1927C25.462 25.6639 25.197 26.095 24.7767 26.3079C24.3564 26.5207 23.8521 26.4792 23.4723 26.2004L17.7603 22.0077C17.648 21.9252 17.5527 21.8266 17.4758 21.7168H10.543C8.33383 21.7168 6.54297 19.9259 6.54297 17.7168V10.9189ZM22.962 22.7246L22.3154 22.25H22.962V22.7246Z" fill="#03432F"/>
<path fill-rule="evenodd" clip-rule="evenodd" d="M4.58767 3.41895H15.462C16.2904 3.41895 16.962 4.09052 16.962 4.91894V6.91914H19.462V4.91894C19.462 2.7098 17.6711 0.918945 15.462 0.918945H4.58767C2.37853 0.918945 0.587664 2.70981 0.587664 4.91895V13.2168V14.6675C0.558531 14.7734 0.542969 14.8849 0.542969 15V19.1927C0.542969 19.6639 0.807884 20.095 1.2282 20.3079C1.64852 20.5207 2.15282 20.4792 2.53263 20.2004L6.54339 17.2564V13.2168H3.08766V4.91895C3.08766 4.09052 3.75924 3.41895 4.58767 3.41895ZM3.68952 16.25L3.04297 16.7246V16.25H3.68952Z" fill="#03432F"/>
</svg>
