<svg width="30" height="33" viewBox="0 0 30 33" fill="none" xmlns="http://www.w3.org/2000/svg">
<path d="M28.5536 10.9907C30.2984 9.07193 29.5028 6.83081 28.5536 5.74096L24.3661 1.13593C22.6074 -0.782828 20.5834 0.0921266 19.5924 1.13593L17.2194 3.7608H13.6042C10.9521 3.7608 9.41668 5.29581 8.63501 7.06107L2.43748 13.8765V20.0165L1.44643 21.091C-0.29837 23.0252 0.497259 25.2509 1.44643 26.3408L5.63395 30.9458C6.3877 31.7747 7.19729 32.0817 7.965 32.0817C8.95605 32.0817 9.86335 31.5445 10.4077 30.9458L14.1765 26.7859H19.1876C21.5605 26.7859 22.7609 25.1588 23.1936 23.5624C24.7709 23.1019 25.6363 21.7818 25.9853 20.4924C28.1489 19.8784 28.9584 17.6219 28.9584 16.0409V11.4358H28.1349L28.5536 10.9907ZM26.1668 16.0409C26.1668 16.7316 25.9016 17.5759 24.7709 17.5759H23.3751V19.1109C23.3751 19.8016 23.1099 20.6459 21.9792 20.6459H20.5834V22.1809C20.5834 22.8717 20.3182 23.7159 19.1876 23.7159H13.0319L8.45355 28.7507C8.02084 29.1959 7.76959 28.9349 7.61604 28.7661L3.44248 24.1918C3.03769 23.7159 3.27498 23.4396 3.42852 23.2708L5.22916 21.2752V15.1352L8.02084 12.0652V14.5059C8.02084 16.3632 9.13751 19.1109 12.2084 19.1109C15.2792 19.1109 16.3959 16.3632 16.3959 14.5059H26.1668V16.0409ZM26.5716 8.81098L24.1986 11.4358H13.6042V14.5059C13.6042 15.1966 13.339 16.0409 12.2084 16.0409C11.0777 16.0409 10.8125 15.1966 10.8125 14.5059V9.90083C10.8125 9.19473 11.0498 6.83081 13.6042 6.83081H18.364L21.5465 3.331C21.9792 2.88584 22.2305 3.14679 22.384 3.31564L26.5576 7.88997C26.9624 8.36582 26.7251 8.64213 26.5716 8.81098Z" fill="white"/>
</svg>
