<svg width="15" height="14" viewBox="0 0 15 14" fill="none" xmlns="http://www.w3.org/2000/svg">
<path fill-rule="evenodd" clip-rule="evenodd" d="M0.905273 3.99929C0.905273 3.66792 1.1739 3.39929 1.50527 3.39929H14.4C14.7314 3.39929 15 3.66792 15 3.99929C15 4.33066 14.7314 4.59929 14.4 4.59929H13.5135V4.66238V11C13.5135 12.6569 12.1704 14 10.5135 14H5.553C3.89614 14 2.553 12.6569 2.553 11V4.66238V4.59929H1.50527C1.1739 4.59929 0.905273 4.33066 0.905273 3.99929ZM4.69312 10.8388C4.69312 10.5074 4.96174 10.2388 5.29312 10.2388H10.451C10.7824 10.2388 11.051 10.5074 11.051 10.8388C11.051 11.1701 10.7824 11.4388 10.451 11.4388H5.29312C4.96174 11.4388 4.69312 11.1701 4.69312 10.8388ZM3.753 4.66238H12.3135V11C12.3135 11.9941 11.5076 12.8 10.5135 12.8H5.553C4.55889 12.8 3.753 11.9941 3.753 11V4.66238Z" fill="white"/>
<path d="M5.05482 3.4C5.10752 1.84468 6.38497 0.6 7.95312 0.6C9.52128 0.6 10.7987 1.84468 10.8514 3.4H5.05482Z" stroke="white" stroke-width="1.2"/>
</svg>
