<svg width="20" height="14" viewBox="0 0 20 14" fill="none" xmlns="http://www.w3.org/2000/svg">
<path d="M1 3.18182H14.5M14.5 3.18182C14.5 4.38684 15.5073 5.36364 16.75 5.36364C17.9927 5.36364 19 4.38684 19 3.18182C19 1.9768 17.9927 1 16.75 1C15.5073 1 14.5 1.9768 14.5 3.18182ZM5.5 10.8182H19M5.5 10.8182C5.5 9.61316 4.49264 8.63636 3.25 8.63636C2.00736 8.63636 1 9.61316 1 10.8182C1 12.0232 2.00736 13 3.25 13C4.49264 13 5.5 12.0232 5.5 10.8182Z" stroke="#404040" stroke-width="1.5" stroke-linecap="round"/>
</svg>
