<svg width="30" height="33" viewBox="0 0 30 33" fill="none" xmlns="http://www.w3.org/2000/svg">
<path d="M16.417 25.6657V30.5817H15.0415V25.6657V24.1657H13.583V19.2497C13.583 19.0036 13.6838 18.7565 13.8492 18.5746C14.0163 18.3908 14.1794 18.3437 14.2708 18.3437H17.1878C17.2792 18.3437 17.4423 18.3908 17.6094 18.5746C17.7748 18.7565 17.8755 19.0036 17.8755 19.2497V24.1657H16.417V25.6657ZM28.085 11.2297V19.3537H27.3973H25.8973V20.8537V30.5817H23.7925V19.2497C23.7925 16.8636 22.709 14.6539 20.8755 13.4073V11.2297C20.8755 10.1563 21.6477 9.52171 22.2925 9.52171H26.668C27.3129 9.52171 28.085 10.1563 28.085 11.2297ZM9.12454 11.2297V19.3537H8.43679H6.93679V20.8537V30.5817H4.10279V20.8537V19.3537H2.60279H1.91504V11.2297C1.91504 10.1563 2.68716 9.52171 3.33204 9.52171H7.70754C8.35242 9.52171 9.12454 10.1563 9.12454 11.2297ZM16.417 12.8337C16.417 13.0799 16.3163 13.3269 16.1509 13.5088C15.9838 13.6926 15.8207 13.7397 15.7293 13.7397C15.6379 13.7397 15.4748 13.6926 15.3077 13.5088C15.1423 13.3269 15.0415 13.0799 15.0415 12.8337C15.0415 12.5876 15.1423 12.3405 15.3077 12.1586C15.4748 11.9748 15.6379 11.9277 15.7293 11.9277C15.8207 11.9277 15.9838 11.9748 16.1509 12.1586C16.3163 12.3405 16.417 12.5876 16.417 12.8337ZM6.93679 3.20971C6.93679 4.2831 6.16467 4.91771 5.51979 4.91771C4.87491 4.91771 4.10279 4.2831 4.10279 3.20971C4.10279 2.13632 4.87491 1.50171 5.51979 1.50171C6.16467 1.50171 6.93679 2.13632 6.93679 3.20971ZM25.8973 3.20971C25.8973 4.2831 25.1252 4.91771 24.4803 4.91771C23.8354 4.91771 23.0633 4.2831 23.0633 3.20971C23.0633 2.13632 23.8354 1.50171 24.4803 1.50171C25.1252 1.50171 25.8973 2.13632 25.8973 3.20971Z" stroke="white" stroke-width="3"/>
</svg>
