<svg width="26" height="26" viewBox="0 0 26 26" fill="none" xmlns="http://www.w3.org/2000/svg">
<path d="M7.5 13.5H11.25" stroke="#03432F" stroke-width="2.5" stroke-linecap="round"/>
<path d="M7.5 19.2693H15" stroke="#03432F" stroke-width="2.5" stroke-linecap="round"/>
<path fill-rule="evenodd" clip-rule="evenodd" d="M16.5 5.03152V8.53847C16.5 9.3669 17.1716 10.0385 18 10.0385H21.7072L16.5 5.03152ZM25.5 12.2384V12.5385V22C25.5 24.2092 23.7091 26 21.5 26H4.5C2.29086 26 0.5 24.2092 0.5 22V5.00001C0.5 2.79087 2.29086 1.00001 4.5 1.00001H14H14.4747C14.8059 0.905544 15.177 0.984832 15.4431 1.24072L25.4431 10.8561C25.8308 11.2289 25.8527 11.8391 25.5 12.2384ZM23 12.5385H18C15.7909 12.5385 14 10.7476 14 8.53847V3.50001H4.5C3.67157 3.50001 3 4.17158 3 5.00001V22C3 22.8284 3.67157 23.5 4.5 23.5H21.5C22.3284 23.5 23 22.8284 23 22V12.5385Z" fill="#03432F"/>
</svg>
