<svg width="26" height="26" viewBox="0 0 26 26" fill="none" xmlns="http://www.w3.org/2000/svg">
<path d="M7.5 13.5H11.25" stroke="#D1F4F0" stroke-width="2.5" stroke-linecap="round"/>
<path d="M7.5 19.2693H15" stroke="#D1F4F0" stroke-width="2.5" stroke-linecap="round"/>
<path fill-rule="evenodd" clip-rule="evenodd" d="M16.5 5.0314V8.53835C16.5 9.36678 17.1716 10.0384 18 10.0384H21.7072L16.5 5.0314ZM25.5 12.2383V12.5384V21.9999C25.5 24.209 23.7091 25.9999 21.5 25.9999H4.5C2.29086 25.9999 0.5 24.209 0.5 21.9999V4.99989C0.5 2.79075 2.29086 0.999889 4.5 0.999889H14H14.4747C14.8059 0.905422 15.177 0.98471 15.4431 1.24059L25.4431 10.856C25.8308 11.2288 25.8527 11.8389 25.5 12.2383ZM23 12.5384H18C15.7909 12.5384 14 10.7475 14 8.53835V3.49989H4.5C3.67157 3.49989 3 4.17146 3 4.99989V21.9999C3 22.8283 3.67157 23.4999 4.5 23.4999H21.5C22.3284 23.4999 23 22.8283 23 21.9999V12.5384Z" fill="#D1F4F0"/>
</svg>
