<svg width="142" height="66" viewBox="0 0 142 66" fill="none" xmlns="http://www.w3.org/2000/svg">
<path d="M4.41 64V62.83L4.51 62.86C4.40333 63.24 4.18333 63.5433 3.85 63.77C3.51667 63.99 3.11667 64.1 2.65 64.1C2.19 64.1 1.78667 63.99 1.44 63.77C1.1 63.55 0.833333 63.2433 0.64 62.85C0.453333 62.4567 0.36 61.9967 0.36 61.47C0.36 60.9367 0.456667 60.47 0.65 60.07C0.843333 59.67 1.11333 59.36 1.46 59.14C1.80667 58.92 2.21333 58.81 2.68 58.81C3.16667 58.81 3.56667 58.9267 3.88 59.16C4.2 59.3867 4.41 59.7067 4.51 60.12L4.37 60.14V56.8H5.4V64H4.41ZM2.91 63.23C3.37 63.23 3.73333 63.0733 4 62.76C4.26667 62.44 4.4 62 4.4 61.44C4.4 60.8933 4.26333 60.4633 3.99 60.15C3.72333 59.83 3.36 59.67 2.9 59.67C2.44667 59.67 2.08667 59.83 1.82 60.15C1.56 60.4633 1.43 60.9033 1.43 61.47C1.43 62.0233 1.56 62.4567 1.82 62.77C2.08667 63.0767 2.45 63.23 2.91 63.23ZM9.56281 64.1C9.04948 64.1 8.59615 63.9867 8.20281 63.76C7.81615 63.5333 7.51281 63.22 7.29281 62.82C7.07281 62.42 6.96281 61.96 6.96281 61.44C6.96281 60.9133 7.06948 60.4533 7.28281 60.06C7.50281 59.66 7.80948 59.35 8.20281 59.13C8.59615 58.91 9.04615 58.8 9.55281 58.8C10.0461 58.8 10.4728 58.9067 10.8328 59.12C11.1995 59.3267 11.4795 59.6167 11.6728 59.99C11.8728 60.3633 11.9728 60.8067 11.9728 61.32C11.9728 61.4 11.9695 61.4767 11.9628 61.55C11.9628 61.6167 11.9561 61.6867 11.9428 61.76H7.66281V60.98H11.2128L10.9528 61.29C10.9528 60.7433 10.8295 60.3267 10.5828 60.04C10.3361 59.7533 9.99281 59.61 9.55281 59.61C9.07948 59.61 8.70281 59.7733 8.42281 60.1C8.14948 60.42 8.01281 60.8667 8.01281 61.44C8.01281 62.02 8.14948 62.4733 8.42281 62.8C8.70281 63.1267 9.08948 63.29 9.58281 63.29C9.88281 63.29 10.1428 63.23 10.3628 63.11C10.5828 62.9833 10.7461 62.8 10.8528 62.56H11.8328C11.6661 63.04 11.3828 63.4167 10.9828 63.69C10.5895 63.9633 10.1161 64.1 9.56281 64.1ZM16.638 64C16.6047 63.8733 16.5814 63.7333 16.568 63.58C16.5614 63.4267 16.558 63.24 16.558 63.02H16.508V60.59C16.508 60.2633 16.4247 60.02 16.258 59.86C16.098 59.6933 15.8414 59.61 15.488 59.61C15.148 59.61 14.8747 59.6767 14.668 59.81C14.468 59.9433 14.3514 60.1333 14.318 60.38H13.328C13.3747 59.9 13.5914 59.5167 13.978 59.23C14.3647 58.9433 14.8814 58.8 15.528 58.8C16.1947 58.8 16.6947 58.9567 17.028 59.27C17.3614 59.5767 17.528 60.03 17.528 60.63V63.02C17.528 63.1733 17.538 63.33 17.558 63.49C17.578 63.65 17.608 63.82 17.648 64H16.638ZM14.878 64.1C14.358 64.1 13.9447 63.9733 13.638 63.72C13.3314 63.46 13.178 63.11 13.178 62.67C13.178 62.2167 13.338 61.86 13.658 61.6C13.9847 61.3333 14.4514 61.1533 15.058 61.06L16.738 60.79V61.52L15.218 61.76C14.878 61.8133 14.6214 61.9033 14.448 62.03C14.2814 62.1567 14.198 62.34 14.198 62.58C14.198 62.8133 14.2747 62.99 14.428 63.11C14.588 63.2233 14.818 63.28 15.118 63.28C15.518 63.28 15.848 63.1833 16.108 62.99C16.3747 62.7967 16.508 62.5533 16.508 62.26L16.638 63C16.518 63.3533 16.3047 63.6267 15.998 63.82C15.6914 64.0067 15.318 64.1 14.878 64.1ZM23.078 64V62.83L23.178 62.86C23.0713 63.24 22.8513 63.5433 22.518 63.77C22.1846 63.99 21.7846 64.1 21.318 64.1C20.858 64.1 20.4546 63.99 20.108 63.77C19.768 63.55 19.5013 63.2433 19.308 62.85C19.1213 62.4567 19.028 61.9967 19.028 61.47C19.028 60.9367 19.1246 60.47 19.318 60.07C19.5113 59.67 19.7813 59.36 20.128 59.14C20.4746 58.92 20.8813 58.81 21.348 58.81C21.8346 58.81 22.2346 58.9267 22.548 59.16C22.868 59.3867 23.078 59.7067 23.178 60.12L23.038 60.14V56.8H24.068V64H23.078ZM21.578 63.23C22.038 63.23 22.4013 63.0733 22.668 62.76C22.9346 62.44 23.068 62 23.068 61.44C23.068 60.8933 22.9313 60.4633 22.658 60.15C22.3913 59.83 22.028 59.67 21.568 59.67C21.1146 59.67 20.7546 59.83 20.488 60.15C20.228 60.4633 20.098 60.9033 20.098 61.47C20.098 62.0233 20.228 62.4567 20.488 62.77C20.7546 63.0767 21.118 63.23 21.578 63.23ZM26.0308 64V56.8H27.0708V64H26.0308ZM29.0308 64V58.9H30.0708V64H29.0308ZM28.9808 57.9V56.73H30.1308V57.9H28.9808ZM32.0308 64V58.9H33.0208V60.1H33.0708V64H32.0308ZM35.6508 64V60.72C35.6508 60.3667 35.5608 60.1033 35.3808 59.93C35.2074 59.7567 34.9474 59.67 34.6008 59.67C34.3008 59.67 34.0341 59.7367 33.8008 59.87C33.5741 60.0033 33.3941 60.1867 33.2608 60.42C33.1341 60.6533 33.0708 60.93 33.0708 61.25L32.9408 60.03C33.1074 59.65 33.3641 59.35 33.7108 59.13C34.0574 58.91 34.4608 58.8 34.9208 58.8C35.4674 58.8 35.8974 58.9533 36.2108 59.26C36.5241 59.5667 36.6808 59.9733 36.6808 60.48V64H35.6508ZM40.7952 64.1C40.2819 64.1 39.8286 63.9867 39.4352 63.76C39.0486 63.5333 38.7452 63.22 38.5252 62.82C38.3052 62.42 38.1952 61.96 38.1952 61.44C38.1952 60.9133 38.3019 60.4533 38.5152 60.06C38.7352 59.66 39.0419 59.35 39.4352 59.13C39.8286 58.91 40.2786 58.8 40.7852 58.8C41.2786 58.8 41.7052 58.9067 42.0652 59.12C42.4319 59.3267 42.7119 59.6167 42.9052 59.99C43.1052 60.3633 43.2052 60.8067 43.2052 61.32C43.2052 61.4 43.2019 61.4767 43.1952 61.55C43.1952 61.6167 43.1886 61.6867 43.1752 61.76H38.8952V60.98H42.4452L42.1852 61.29C42.1852 60.7433 42.0619 60.3267 41.8152 60.04C41.5686 59.7533 41.2252 59.61 40.7852 59.61C40.3119 59.61 39.9352 59.7733 39.6552 60.1C39.3819 60.42 39.2452 60.8667 39.2452 61.44C39.2452 62.02 39.3819 62.4733 39.6552 62.8C39.9352 63.1267 40.3219 63.29 40.8152 63.29C41.1152 63.29 41.3752 63.23 41.5952 63.11C41.8152 62.9833 41.9786 62.8 42.0852 62.56H43.0652C42.8986 63.04 42.6152 63.4167 42.2152 63.69C41.8219 63.9633 41.3486 64.1 40.7952 64.1ZM47.2417 64V58.9H48.2317V60.17H48.2817V64H47.2417ZM48.2817 61.34L48.1517 60.13C48.2717 59.6967 48.4784 59.3667 48.7717 59.14C49.0651 58.9133 49.4151 58.8 49.8217 58.8C49.9751 58.8 50.0817 58.8133 50.1417 58.84V59.82C50.1084 59.8067 50.0617 59.8 50.0017 59.8C49.9417 59.7933 49.8684 59.79 49.7817 59.79C49.2817 59.79 48.9051 59.92 48.6517 60.18C48.4051 60.44 48.2817 60.8267 48.2817 61.34ZM53.6234 64.1C53.11 64.1 52.6567 63.9867 52.2634 63.76C51.8767 63.5333 51.5734 63.22 51.3534 62.82C51.1334 62.42 51.0234 61.96 51.0234 61.44C51.0234 60.9133 51.13 60.4533 51.3434 60.06C51.5634 59.66 51.87 59.35 52.2634 59.13C52.6567 58.91 53.1067 58.8 53.6134 58.8C54.1067 58.8 54.5334 58.9067 54.8934 59.12C55.26 59.3267 55.54 59.6167 55.7334 59.99C55.9334 60.3633 56.0334 60.8067 56.0334 61.32C56.0334 61.4 56.03 61.4767 56.0234 61.55C56.0234 61.6167 56.0167 61.6867 56.0034 61.76H51.7234V60.98H55.2734L55.0134 61.29C55.0134 60.7433 54.89 60.3267 54.6434 60.04C54.3967 59.7533 54.0534 59.61 53.6134 59.61C53.14 59.61 52.7634 59.7733 52.4834 60.1C52.21 60.42 52.0734 60.8667 52.0734 61.44C52.0734 62.02 52.21 62.4733 52.4834 62.8C52.7634 63.1267 53.15 63.29 53.6434 63.29C53.9434 63.29 54.2034 63.23 54.4234 63.11C54.6434 62.9833 54.8067 62.8 54.9134 62.56H55.8934C55.7267 63.04 55.4434 63.4167 55.0434 63.69C54.65 63.9633 54.1767 64.1 53.6234 64.1ZM57.5972 64V58.9H58.5872V60.1H58.6372V64H57.5972ZM61.0372 64V60.67C61.0372 60.3233 60.9572 60.07 60.7972 59.91C60.6372 59.75 60.4072 59.67 60.1072 59.67C59.8272 59.67 59.5739 59.7367 59.3472 59.87C59.1272 59.9967 58.9539 60.1767 58.8272 60.41C58.7005 60.6367 58.6372 60.9067 58.6372 61.22L58.5072 60.03C58.6739 59.65 58.9239 59.35 59.2572 59.13C59.5972 58.91 59.9772 58.8 60.3972 58.8C60.9039 58.8 61.3072 58.9467 61.6072 59.24C61.9139 59.5333 62.0672 59.92 62.0672 60.4V64H61.0372ZM64.4772 64V60.67C64.4772 60.3233 64.3939 60.07 64.2272 59.91C64.0672 59.75 63.8372 59.67 63.5372 59.67C63.2639 59.67 63.0139 59.7367 62.7872 59.87C62.5672 59.9967 62.3905 60.1767 62.2572 60.41C62.1305 60.6367 62.0672 60.9067 62.0672 61.22L61.8572 60.03C62.0305 59.65 62.2905 59.35 62.6372 59.13C62.9905 58.91 63.3839 58.8 63.8172 58.8C64.3305 58.8 64.7405 58.95 65.0472 59.25C65.3539 59.5433 65.5072 59.9367 65.5072 60.43V64H64.4772ZM67.3843 64V58.9H68.4243V64H67.3843ZM67.3343 57.9V56.73H68.4843V57.9H67.3343ZM70.3843 64V58.9H71.3743V60.1H71.4243V64H70.3843ZM74.0043 64V60.72C74.0043 60.3667 73.9143 60.1033 73.7343 59.93C73.561 59.7567 73.301 59.67 72.9543 59.67C72.6543 59.67 72.3876 59.7367 72.1543 59.87C71.9276 60.0033 71.7476 60.1867 71.6143 60.42C71.4876 60.6533 71.4243 60.93 71.4243 61.25L71.2943 60.03C71.461 59.65 71.7176 59.35 72.0643 59.13C72.411 58.91 72.8143 58.8 73.2743 58.8C73.821 58.8 74.251 58.9533 74.5643 59.26C74.8776 59.5667 75.0343 59.9733 75.0343 60.48V64H74.0043ZM80.6288 64V62.83L80.7288 62.86C80.6221 63.24 80.4021 63.5433 80.0688 63.77C79.7354 63.99 79.3354 64.1 78.8688 64.1C78.4088 64.1 78.0054 63.99 77.6588 63.77C77.3188 63.55 77.0521 63.2433 76.8588 62.85C76.6721 62.4567 76.5788 61.9967 76.5788 61.47C76.5788 60.9367 76.6754 60.47 76.8688 60.07C77.0621 59.67 77.3321 59.36 77.6788 59.14C78.0254 58.92 78.4321 58.81 78.8988 58.81C79.3854 58.81 79.7854 58.9267 80.0988 59.16C80.4188 59.3867 80.6288 59.7067 80.7288 60.12L80.5888 60.14V56.8H81.6188V64H80.6288ZM79.1288 63.23C79.5888 63.23 79.9521 63.0733 80.2188 62.76C80.4854 62.44 80.6188 62 80.6188 61.44C80.6188 60.8933 80.4821 60.4633 80.2088 60.15C79.9421 59.83 79.5788 59.67 79.1188 59.67C78.6654 59.67 78.3054 59.83 78.0388 60.15C77.7788 60.4633 77.6488 60.9033 77.6488 61.47C77.6488 62.0233 77.7788 62.4567 78.0388 62.77C78.3054 63.0767 78.6688 63.23 79.1288 63.23ZM85.7816 64.1C85.2682 64.1 84.8149 63.9867 84.4216 63.76C84.0349 63.5333 83.7316 63.22 83.5116 62.82C83.2916 62.42 83.1816 61.96 83.1816 61.44C83.1816 60.9133 83.2882 60.4533 83.5016 60.06C83.7216 59.66 84.0282 59.35 84.4216 59.13C84.8149 58.91 85.2649 58.8 85.7716 58.8C86.2649 58.8 86.6916 58.9067 87.0516 59.12C87.4182 59.3267 87.6982 59.6167 87.8916 59.99C88.0916 60.3633 88.1916 60.8067 88.1916 61.32C88.1916 61.4 88.1882 61.4767 88.1816 61.55C88.1816 61.6167 88.1749 61.6867 88.1616 61.76H83.8816V60.98H87.4316L87.1716 61.29C87.1716 60.7433 87.0482 60.3267 86.8016 60.04C86.5549 59.7533 86.2116 59.61 85.7716 59.61C85.2982 59.61 84.9216 59.7733 84.6416 60.1C84.3682 60.42 84.2316 60.8667 84.2316 61.44C84.2316 62.02 84.3682 62.4733 84.6416 62.8C84.9216 63.1267 85.3082 63.29 85.8016 63.29C86.1016 63.29 86.3616 63.23 86.5816 63.11C86.8016 62.9833 86.9649 62.8 87.0716 62.56H88.0516C87.8849 63.04 87.6016 63.4167 87.2016 63.69C86.8082 63.9633 86.3349 64.1 85.7816 64.1ZM89.7554 64V58.9H90.7454V60.17H90.7954V64H89.7554ZM90.7954 61.34L90.6654 60.13C90.7854 59.6967 90.9921 59.3667 91.2854 59.14C91.5787 58.9133 91.9287 58.8 92.3354 58.8C92.4887 58.8 92.5954 58.8133 92.6554 58.84V59.82C92.6221 59.8067 92.5754 59.8 92.5154 59.8C92.4554 59.7933 92.3821 59.79 92.2954 59.79C91.7954 59.79 91.4187 59.92 91.1654 60.18C90.9187 60.44 90.7954 60.8267 90.7954 61.34ZM99.7162 64C99.6828 63.8733 99.6595 63.7333 99.6462 63.58C99.6395 63.4267 99.6362 63.24 99.6362 63.02H99.5862V60.59C99.5862 60.2633 99.5028 60.02 99.3362 59.86C99.1762 59.6933 98.9195 59.61 98.5662 59.61C98.2262 59.61 97.9528 59.6767 97.7462 59.81C97.5462 59.9433 97.4295 60.1333 97.3962 60.38H96.4062C96.4528 59.9 96.6695 59.5167 97.0562 59.23C97.4428 58.9433 97.9595 58.8 98.6062 58.8C99.2728 58.8 99.7728 58.9567 100.106 59.27C100.44 59.5767 100.606 60.03 100.606 60.63V63.02C100.606 63.1733 100.616 63.33 100.636 63.49C100.656 63.65 100.686 63.82 100.726 64H99.7162ZM97.9562 64.1C97.4362 64.1 97.0228 63.9733 96.7162 63.72C96.4095 63.46 96.2562 63.11 96.2562 62.67C96.2562 62.2167 96.4162 61.86 96.7362 61.6C97.0628 61.3333 97.5295 61.1533 98.1362 61.06L99.8162 60.79V61.52L98.2962 61.76C97.9562 61.8133 97.6995 61.9033 97.5262 62.03C97.3595 62.1567 97.2762 62.34 97.2762 62.58C97.2762 62.8133 97.3528 62.99 97.5062 63.11C97.6662 63.2233 97.8962 63.28 98.1962 63.28C98.5962 63.28 98.9262 63.1833 99.1862 62.99C99.4528 62.7967 99.5862 62.5533 99.5862 62.26L99.7162 63C99.5962 63.3533 99.3828 63.6267 99.0762 63.82C98.7695 64.0067 98.3962 64.1 97.9562 64.1ZM104.297 64.1C103.63 64.1 103.1 63.9533 102.707 63.66C102.313 63.3667 102.09 62.9533 102.037 62.42H102.997C103.043 62.7133 103.177 62.94 103.397 63.1C103.623 63.2533 103.93 63.33 104.317 63.33C104.657 63.33 104.917 63.27 105.097 63.15C105.277 63.03 105.367 62.86 105.367 62.64C105.367 62.48 105.313 62.3467 105.207 62.24C105.107 62.1267 104.907 62.0333 104.607 61.96L103.787 61.77C103.273 61.6433 102.89 61.4567 102.637 61.21C102.39 60.9567 102.267 60.6467 102.267 60.28C102.267 59.82 102.437 59.46 102.777 59.2C103.123 58.9333 103.597 58.8 104.197 58.8C104.79 58.8 105.267 58.9333 105.627 59.2C105.993 59.4667 106.2 59.84 106.247 60.32H105.287C105.247 60.08 105.13 59.8967 104.937 59.77C104.75 59.6367 104.493 59.57 104.167 59.57C103.86 59.57 103.623 59.6267 103.457 59.74C103.297 59.8467 103.217 59.9967 103.217 60.19C103.217 60.35 103.277 60.4833 103.397 60.59C103.523 60.6967 103.73 60.7867 104.017 60.86L104.857 61.07C105.343 61.19 105.71 61.3867 105.957 61.66C106.203 61.9267 106.327 62.25 106.327 62.63C106.327 63.09 106.147 63.45 105.787 63.71C105.433 63.97 104.937 64.1 104.297 64.1ZM109.718 64.1C109.052 64.1 108.522 63.9533 108.128 63.66C107.735 63.3667 107.512 62.9533 107.458 62.42H108.418C108.465 62.7133 108.598 62.94 108.818 63.1C109.045 63.2533 109.352 63.33 109.738 63.33C110.078 63.33 110.338 63.27 110.518 63.15C110.698 63.03 110.788 62.86 110.788 62.64C110.788 62.48 110.735 62.3467 110.628 62.24C110.528 62.1267 110.328 62.0333 110.028 61.96L109.208 61.77C108.695 61.6433 108.312 61.4567 108.058 61.21C107.812 60.9567 107.688 60.6467 107.688 60.28C107.688 59.82 107.858 59.46 108.198 59.2C108.545 58.9333 109.018 58.8 109.618 58.8C110.212 58.8 110.688 58.9333 111.048 59.2C111.415 59.4667 111.622 59.84 111.668 60.32H110.708C110.668 60.08 110.552 59.8967 110.358 59.77C110.172 59.6367 109.915 59.57 109.588 59.57C109.282 59.57 109.045 59.6267 108.878 59.74C108.718 59.8467 108.638 59.9967 108.638 60.19C108.638 60.35 108.698 60.4833 108.818 60.59C108.945 60.6967 109.152 60.7867 109.438 60.86L110.278 61.07C110.765 61.19 111.132 61.3867 111.378 61.66C111.625 61.9267 111.748 62.25 111.748 62.63C111.748 63.09 111.568 63.45 111.208 63.71C110.855 63.97 110.358 64.1 109.718 64.1ZM113.261 64V58.9H114.301V64H113.261ZM113.211 57.9V56.73H114.361V57.9H113.211ZM118.091 64.1C117.425 64.1 116.895 63.9533 116.501 63.66C116.108 63.3667 115.885 62.9533 115.831 62.42H116.791C116.838 62.7133 116.971 62.94 117.191 63.1C117.418 63.2533 117.725 63.33 118.111 63.33C118.451 63.33 118.711 63.27 118.891 63.15C119.071 63.03 119.161 62.86 119.161 62.64C119.161 62.48 119.108 62.3467 119.001 62.24C118.901 62.1267 118.701 62.0333 118.401 61.96L117.581 61.77C117.068 61.6433 116.685 61.4567 116.431 61.21C116.185 60.9567 116.061 60.6467 116.061 60.28C116.061 59.82 116.231 59.46 116.571 59.2C116.918 58.9333 117.391 58.8 117.991 58.8C118.585 58.8 119.061 58.9333 119.421 59.2C119.788 59.4667 119.995 59.84 120.041 60.32H119.081C119.041 60.08 118.925 59.8967 118.731 59.77C118.545 59.6367 118.288 59.57 117.961 59.57C117.655 59.57 117.418 59.6267 117.251 59.74C117.091 59.8467 117.011 59.9967 117.011 60.19C117.011 60.35 117.071 60.4833 117.191 60.59C117.318 60.6967 117.525 60.7867 117.811 60.86L118.651 61.07C119.138 61.19 119.505 61.3867 119.751 61.66C119.998 61.9267 120.121 62.25 120.121 62.63C120.121 63.09 119.941 63.45 119.581 63.71C119.228 63.97 118.731 64.1 118.091 64.1ZM123.746 64.1C123.152 64.1 122.716 63.9633 122.436 63.69C122.162 63.41 122.026 63 122.026 62.46V57.73L123.056 57.34V62.47C123.056 62.7367 123.126 62.9333 123.266 63.06C123.406 63.1867 123.632 63.25 123.946 63.25C124.066 63.25 124.172 63.24 124.266 63.22C124.359 63.2 124.439 63.1767 124.506 63.15V63.99C124.432 64.0233 124.329 64.05 124.196 64.07C124.062 64.09 123.912 64.1 123.746 64.1ZM121.006 59.73V58.9H124.506V59.73H121.006ZM129.122 64C129.089 63.8733 129.066 63.7333 129.052 63.58C129.046 63.4267 129.042 63.24 129.042 63.02H128.992V60.59C128.992 60.2633 128.909 60.02 128.742 59.86C128.582 59.6933 128.326 59.61 127.972 59.61C127.632 59.61 127.359 59.6767 127.152 59.81C126.952 59.9433 126.836 60.1333 126.802 60.38H125.812C125.859 59.9 126.076 59.5167 126.462 59.23C126.849 58.9433 127.366 58.8 128.012 58.8C128.679 58.8 129.179 58.9567 129.512 59.27C129.846 59.5767 130.012 60.03 130.012 60.63V63.02C130.012 63.1733 130.022 63.33 130.042 63.49C130.062 63.65 130.092 63.82 130.132 64H129.122ZM127.362 64.1C126.842 64.1 126.429 63.9733 126.122 63.72C125.816 63.46 125.662 63.11 125.662 62.67C125.662 62.2167 125.822 61.86 126.142 61.6C126.469 61.3333 126.936 61.1533 127.542 61.06L129.222 60.79V61.52L127.702 61.76C127.362 61.8133 127.106 61.9033 126.932 62.03C126.766 62.1567 126.682 62.34 126.682 62.58C126.682 62.8133 126.759 62.99 126.912 63.11C127.072 63.2233 127.302 63.28 127.602 63.28C128.002 63.28 128.332 63.1833 128.592 62.99C128.859 62.7967 128.992 62.5533 128.992 62.26L129.122 63C129.002 63.3533 128.789 63.6267 128.482 63.82C128.176 64.0067 127.802 64.1 127.362 64.1ZM131.921 64V58.9H132.911V60.1H132.961V64H131.921ZM135.541 64V60.72C135.541 60.3667 135.451 60.1033 135.271 59.93C135.098 59.7567 134.838 59.67 134.491 59.67C134.191 59.67 133.925 59.7367 133.691 59.87C133.465 60.0033 133.285 60.1867 133.151 60.42C133.025 60.6533 132.961 60.93 132.961 61.25L132.831 60.03C132.998 59.65 133.255 59.35 133.601 59.13C133.948 58.91 134.351 58.8 134.811 58.8C135.358 58.8 135.788 58.9533 136.101 59.26C136.415 59.5667 136.571 59.9733 136.571 60.48V64H135.541ZM140.49 64.1C139.897 64.1 139.46 63.9633 139.18 63.69C138.907 63.41 138.77 63 138.77 62.46V57.73L139.8 57.34V62.47C139.8 62.7367 139.87 62.9333 140.01 63.06C140.15 63.1867 140.377 63.25 140.69 63.25C140.81 63.25 140.917 63.24 141.01 63.22C141.103 63.2 141.183 63.1767 141.25 63.15V63.99C141.177 64.0233 141.073 64.05 140.94 64.07C140.807 64.09 140.657 64.1 140.49 64.1ZM137.75 59.73V58.9H141.25V59.73H137.75Z" fill="#02432F"/>
<path fill-rule="evenodd" clip-rule="evenodd" d="M142 0.621669V47.0493C141.651 48.7074 139.532 51.9822 133.843 51.8164V48.0856L134.889 46.2202C134.889 45.542 134.64 45.8228 133.992 46.5545C132.857 47.8352 130.498 50.4974 126.106 51.8164H119.623C116.834 51.4019 110.839 48.7903 109.166 41.6604V24.8718C111.118 18.792 118.786 9.16104 133.843 19.2756C134.178 19.5 135 19 132.589 17.5V5.18153C133.007 3.24704 135.475 -0.373209 142 0.621669ZM132.798 40.2095C132.38 41.384 130.874 43.8159 128.197 44.1476H121.923C120.738 43.8712 118.242 42.6967 117.74 40.2095V26.5299C117.88 25.4936 118.912 23.2966 121.923 22.7992H128.197C129.033 22.7301 131.125 23.3795 132.798 26.5299V33.7843C132.728 34.337 132.254 35.4839 130.916 35.6497H125.478C124.781 35.6497 123.429 35.9398 123.596 37.1005V38.9659C123.805 39.3805 124.474 40.2095 125.478 40.2095H132.798Z" fill="#02432F"/>
<path d="M54.792 51.6094V19.0686C55.9631 15.4207 61.1356 14.6469 63.5755 14.716V48.0859C62.0698 52.5628 57.0924 52.3003 54.792 51.6094Z" fill="#02432F"/>
<path d="M9.20177 47.6711C8.19794 50.9874 2.64899 51.8164 0 51.8164L0.418262 19.0684C1.5894 15.2547 6.48306 14.5776 8.7835 14.7158V19.0684C6.60854 20.8924 7.04075 21.4865 7.52872 21.5556C17.0651 9.78286 24.6078 16.0976 27.187 20.7265C38.3965 9.61703 46.218 16.9266 48.7275 22.1774V47.6711C48.0583 51.319 42.8719 51.9546 40.3623 51.8164V26.7372C37.2253 18.4466 29.4875 23.421 28.8601 26.7372V47.6711C27.689 51.8164 22.9347 52.1619 20.704 51.8164V26.7372C17.567 18.4466 10.2474 23.2137 9.20177 26.7372V47.6711Z" fill="#02432F"/>
<path d="M79.4693 47.6711C78.4655 50.9874 72.9166 51.8164 70.2676 51.8164L70.6858 19.0684C71.857 15.2547 76.7506 14.5776 79.0511 14.7158V19.0684C76.8761 20.8924 77.3083 21.4865 77.7963 21.5556C87.3327 9.78286 102.056 14.7158 102.892 26.7372V47.6711C101.721 51.8164 96.048 52.1619 93.8173 51.8164V26.7372C90.6803 18.4466 80.515 23.2137 79.4693 26.7372V47.6711Z" fill="#02432F"/>
<ellipse cx="59.1838" cy="5.80345" rx="5.85567" ry="5.80345" fill="#02432F"/>
</svg>
