<svg width="33" height="52" viewBox="0 0 33 52" fill="none" xmlns="http://www.w3.org/2000/svg">
<path fill-rule="evenodd" clip-rule="evenodd" d="M32.8336 0.169765V46.5974C32.485 48.2555 30.3658 51.5303 24.6775 51.3645V47.6337L25.7231 45.7683C25.7231 45.0901 25.4743 45.3709 24.8259 46.1026C23.6909 47.3833 21.3317 50.0455 16.9396 51.3645H10.4566C7.66814 50.95 1.67305 48.3384 0 41.2085V24.4199C1.95189 18.3401 9.62003 8.70913 24.6775 18.8237C25.0115 19.0481 25.834 18.5481 23.4227 17.0481V4.72962C23.8409 2.79514 26.3087 -0.825113 32.8336 0.169765ZM23.6318 39.7576C23.2135 40.9321 21.7078 43.364 19.0309 43.6957H12.757C11.5719 43.4193 9.07628 42.2448 8.57437 39.7576V26.078C8.71379 25.0417 9.7455 22.8447 12.757 22.3473H19.0309C19.8674 22.2782 21.9588 22.9276 23.6318 26.078V33.3324C23.5621 33.8851 23.0881 35.0319 21.7496 35.1978H16.3122C15.6151 35.1978 14.2627 35.4879 14.43 36.6486V38.514C14.6392 38.9286 15.3084 39.7576 16.3122 39.7576H23.6318Z" fill="#D1F4F0"/>
</svg>
