<svg width="36" height="33" viewBox="0 0 36 33" fill="none" xmlns="http://www.w3.org/2000/svg">
<path d="M32.9872 16.5278L35.5 19.2692L23.7795 32.0817L17.5513 25.2769L20.0641 22.5355L23.7795 26.5795L32.9872 16.5278ZM14.859 0.00170898C16.7631 0.00170898 18.5892 0.821066 19.9356 2.27953C21.2821 3.738 22.0385 5.7161 22.0385 7.77868C22.0385 9.84126 21.2821 11.8194 19.9356 13.2778C18.5892 14.7363 16.7631 15.5556 14.859 15.5556C12.9549 15.5556 11.1287 14.7363 9.78231 13.2778C8.4359 11.8194 7.67949 9.84126 7.67949 7.77868C7.67949 5.7161 8.4359 3.738 9.78231 2.27953C11.1287 0.821066 12.9549 0.00170898 14.859 0.00170898ZM14.859 3.89019C13.9069 3.89019 12.9939 4.29987 12.3206 5.0291C11.6474 5.75834 11.2692 6.74739 11.2692 7.77868C11.2692 8.80997 11.6474 9.79902 12.3206 10.5283C12.9939 11.2575 13.9069 11.6672 14.859 11.6672C15.811 11.6672 16.7241 11.2575 17.3973 10.5283C18.0705 9.79902 18.4487 8.80997 18.4487 7.77868C18.4487 6.74739 18.0705 5.75834 17.3973 5.0291C16.7241 4.29987 15.811 3.89019 14.859 3.89019ZM14.859 17.4999C16.0795 17.4999 17.5513 17.6749 19.1846 18.0054L16.1872 21.2523L14.859 21.194C9.52821 21.194 3.91026 24.0325 3.91026 25.2769V27.4155H15.0385L18.4487 31.1096H0.5V25.2769C0.5 20.1052 10.0667 17.4999 14.859 17.4999Z" fill="white"/>
</svg>
