<svg width="34" height="33" viewBox="0 0 34 33" fill="none" xmlns="http://www.w3.org/2000/svg">
<path d="M30.7754 16.5278L33.085 19.2692L22.3122 32.0817L16.5876 25.2769L18.8972 22.5355L22.3122 26.5795L30.7754 16.5278ZM14.113 0.00170898C15.8631 0.00170898 17.5416 0.821066 18.7792 2.27953C20.0167 3.738 20.712 5.7161 20.712 7.77868C20.712 9.84126 20.0167 11.8194 18.7792 13.2778C17.5416 14.7363 15.8631 15.5556 14.113 15.5556C12.3628 15.5556 10.6844 14.7363 9.44681 13.2778C8.20926 11.8194 7.51401 9.84126 7.51401 7.77868C7.51401 5.7161 8.20926 3.738 9.44681 2.27953C10.6844 0.821066 12.3628 0.00170898 14.113 0.00170898ZM14.113 3.89019C13.2379 3.89019 12.3987 4.29987 11.7799 5.0291C11.1611 5.75834 10.8135 6.74739 10.8135 7.77868C10.8135 8.80997 11.1611 9.79902 11.7799 10.5283C12.3987 11.2575 13.2379 11.6672 14.113 11.6672C14.9881 11.6672 15.8273 11.2575 16.4461 10.5283C17.0648 9.79902 17.4125 8.80997 17.4125 7.77868C17.4125 6.74739 17.0648 5.75834 16.4461 5.0291C15.8273 4.29987 14.9881 3.89019 14.113 3.89019ZM14.113 17.4999C15.2348 17.4999 16.5876 17.6749 18.0889 18.0054L15.3338 21.2523L14.113 21.194C9.21325 21.194 4.04955 24.0325 4.04955 25.2769V27.4155H14.278L17.4125 31.1096H0.915039V25.2769C0.915039 20.1052 9.70817 17.4999 14.113 17.4999Z" fill="white"/>
</svg>
