<svg width="14" height="14" viewBox="0 0 14 14" fill="none" xmlns="http://www.w3.org/2000/svg">
<g clip-path="url(#clip0_118_2871)">
<path d="M10.2741 9.05035C11.1213 7.89421 11.5008 6.46078 11.3366 5.03686C11.1724 3.61294 10.4765 2.30353 9.38835 1.37059C8.30016 0.437661 6.89984 -0.0499914 5.46754 0.00519764C4.03524 0.0603866 2.6766 0.654347 1.66342 1.66825C0.650242 2.68215 0.0572532 4.04122 0.00308915 5.47356C-0.0510749 6.9059 0.43758 8.30587 1.37129 9.39339C2.305 10.4809 3.61491 11.1758 5.03895 11.339C6.46299 11.5022 7.89614 11.1217 9.05168 10.2736H9.05081C9.07706 10.3086 9.10506 10.3419 9.13656 10.3742L12.5053 13.743C12.6694 13.9072 12.892 13.9994 13.1241 13.9995C13.3562 13.9996 13.5788 13.9075 13.743 13.7434C13.9072 13.5793 13.9995 13.3568 13.9995 13.1247C13.9996 12.8926 13.9075 12.6699 13.7434 12.5057L10.3747 9.13698C10.3434 9.10531 10.3098 9.07606 10.2741 9.04948V9.05035ZM10.4998 5.68686C10.4998 6.31884 10.3753 6.94464 10.1335 7.52852C9.89163 8.1124 9.53714 8.64293 9.09026 9.08981C8.64338 9.53669 8.11285 9.89118 7.52897 10.133C6.94509 10.3749 6.3193 10.4994 5.68731 10.4994C5.05532 10.4994 4.42952 10.3749 3.84565 10.133C3.26177 9.89118 2.73124 9.53669 2.28436 9.08981C1.83748 8.64293 1.48299 8.1124 1.24114 7.52852C0.999288 6.94464 0.874809 6.31884 0.874809 5.68686C0.874809 4.4105 1.38184 3.18642 2.28436 2.2839C3.18688 1.38139 4.41095 0.874356 5.68731 0.874356C6.96366 0.874356 8.18774 1.38139 9.09026 2.2839C9.99278 3.18642 10.4998 4.4105 10.4998 5.68686Z" fill="#999999"/>
</g>
<defs>
<clipPath id="clip0_118_2871">
<rect width="14" height="14" fill="white"/>
</clipPath>
</defs>
</svg>
