<svg width="30" height="33" viewBox="0 0 30 33" fill="none" xmlns="http://www.w3.org/2000/svg">
<path d="M25.9378 15.1505V7.12963L22.0915 9.01898C22.2191 9.5537 22.292 10.1062 22.292 10.6944C22.292 14.6336 19.029 17.8241 15.0003 17.8241C10.9717 17.8241 7.70866 14.6336 7.70866 10.6944C7.70866 10.1062 7.78157 9.5537 7.90918 9.01898L2.23991 6.23843L15.0003 0L27.7607 6.23843V15.1505H25.9378ZM15.0003 12.4769L11.3545 10.6944C11.3545 12.6551 12.9951 14.2593 15.0003 14.2593C17.0055 14.2593 18.6462 12.6551 18.6462 10.6944L15.0003 12.4769ZM20.0133 6.09583L15.292 3.74306L10.3883 6.18495L15.1279 8.53773L20.0133 6.09583ZM15.0003 19.6065C19.8675 19.6065 29.5837 21.9771 29.5837 26.7361V32.0833H0.416992V26.7361C0.416992 21.9771 10.1331 19.6065 15.0003 19.6065ZM15.0003 22.9931C9.53158 22.9931 3.88053 25.5954 3.88053 26.7361V28.6968H26.1201V26.7361C26.1201 25.5954 20.4144 22.9931 15.0003 22.9931Z" fill="white"/>
</svg>
