<svg width="17" height="12" viewBox="0 0 17 12" fill="none" xmlns="http://www.w3.org/2000/svg">
<path fill-rule="evenodd" clip-rule="evenodd" d="M2.21018 6C2.64341 6.59749 3.53132 7.72332 4.70052 8.70353C5.91282 9.71988 7.33237 10.5 8.79801 10.5C10.2636 10.5 11.6832 9.71988 12.8955 8.70353C14.0647 7.72332 14.9526 6.59749 15.3858 6C14.9526 5.40251 14.0647 4.27668 12.8955 3.29647C11.6832 2.28011 10.2636 1.5 8.79801 1.5C7.33237 1.5 5.91282 2.28012 4.70052 3.29647C3.53132 4.27668 2.64341 5.40251 2.21018 6ZM3.73683 2.14698C5.05813 1.03926 6.81522 0 8.79801 0C10.7808 0 12.5379 1.03926 13.8592 2.14698C15.1933 3.26545 16.1804 4.53536 16.6365 5.16975C16.9953 5.66878 16.9953 6.33122 16.6365 6.83025C16.1804 7.46464 15.1933 8.73455 13.8592 9.85302C12.5379 10.9607 10.7808 12 8.79801 12C6.81522 12 5.05813 10.9607 3.73683 9.85302C2.40273 8.73455 1.41561 7.46464 0.959512 6.83025C0.600736 6.33122 0.600735 5.66878 0.959512 5.16975C1.41561 4.53536 2.40273 3.26545 3.73683 2.14698Z" fill="white"/>
<path fill-rule="evenodd" clip-rule="evenodd" d="M8.79801 7.5C9.62643 7.5 10.298 6.82843 10.298 6C10.298 5.17157 9.62643 4.5 8.79801 4.5C7.96958 4.5 7.29801 5.17157 7.29801 6C7.29801 6.82843 7.96958 7.5 8.79801 7.5ZM8.79801 9C10.4549 9 11.798 7.65685 11.798 6C11.798 4.34315 10.4549 3 8.79801 3C7.14115 3 5.79801 4.34315 5.79801 6C5.79801 7.65685 7.14115 9 8.79801 9Z" fill="white"/>
</svg>
