<svg width="34" height="33" viewBox="0 0 34 33" fill="none" xmlns="http://www.w3.org/2000/svg">
<path d="M17 29.3737C9.92632 29.3737 4.16796 23.6154 4.16796 16.5417C4.16796 9.46807 9.92632 3.70971 17 3.70971C24.0736 3.70971 29.832 9.46807 29.832 16.5417C29.832 23.6154 24.0736 29.3737 17 29.3737ZM17 0.501709C14.8936 0.501709 12.8078 0.916596 10.8617 1.72268C8.91566 2.52877 7.14742 3.71026 5.65797 5.19972C2.64988 8.2078 0.959961 12.2876 0.959961 16.5417C0.959961 20.7958 2.64988 24.8756 5.65797 27.8837C7.14742 29.3732 8.91566 30.5547 10.8617 31.3607C12.8078 32.1668 14.8936 32.5817 17 32.5817C21.254 32.5817 25.3339 30.8918 28.342 27.8837C31.35 24.8756 33.04 20.7958 33.04 16.5417C33.04 14.4353 32.6251 12.3495 31.819 10.4035C31.0129 8.4574 29.8314 6.68917 28.342 5.19972C26.8525 3.71026 25.0843 2.52877 23.1382 1.72268C21.1921 0.916596 19.1064 0.501709 17 0.501709ZM18.604 8.52171H15.396V14.9377H8.97996V18.1457H15.396V24.5617H18.604V18.1457H25.02V14.9377H18.604V8.52171Z" fill="#999999"/>
</svg>
